<svg width="256" height="198" viewBox="0 0 256 198" fill="none" xmlns="http://www.w3.org/2000/svg">
<g clip-path="url(#clip0_189_129)">
<path d="M245.015 39.2204C244.597 39.5367 244.178 39.7476 243.76 39.9585C243.655 39.5367 243.655 39.115 243.55 38.6933C243.341 37.4281 242.086 36.2684 240.83 37.1118C240.098 37.639 239.366 38.2716 238.843 38.9041C237.796 38.2716 236.855 37.639 235.704 37.1118C233.821 36.2684 232.252 38.2716 233.507 39.9585C235.076 41.8562 236.018 44.0703 236.541 46.3898C236.855 47.7604 238.319 47.9712 239.261 47.3386C239.784 47.9712 240.621 48.2875 241.458 47.7604C243.76 45.968 245.747 44.0703 247.421 41.7508C248.572 40.2747 246.48 38.2716 245.015 39.2204Z" fill="white" fill-opacity="0.1"/>
<path d="M20.4007 70.0064C20.4007 70.1118 20.2961 70.3227 20.1915 70.4281C17.576 71.7987 14.5421 71.9042 11.822 70.7444C9.93892 69.901 6.59114 67.5815 6.80038 65.0511C7.00961 62.5208 11.0897 63.1534 12.5544 63.5751C15.9021 64.3131 18.7268 66.4217 20.7146 69.3738C20.8192 69.5847 20.6099 69.901 20.4007 70.0064ZM19.5638 69.4792C18.0991 67.3706 16.1114 65.7891 13.7052 64.9457C12.3451 64.4185 6.80038 63.2588 8.57888 66.738C10.462 70.5335 16.1114 71.2716 19.5638 69.4792Z" fill="white" fill-opacity="0.1"/>
<path d="M209.759 170.272C209.759 170.482 209.759 170.799 209.863 171.01C209.968 171.958 208.608 171.958 208.503 171.01C204.633 173.856 199.716 174.594 195.217 172.907C193.229 172.169 187.161 168.69 190.928 166.581C196.158 163.524 202.645 166.476 207.457 168.374C207.876 168.479 208.085 168.585 208.399 168.69C208.294 160.256 213.107 152.981 217.814 146.128C218.128 145.706 218.756 145.601 219.07 146.128C223.045 155.722 217.082 164.578 209.759 170.272ZM207.353 170.166C205.051 168.69 202.645 167.636 199.82 167.214C198.042 166.898 190.718 166.371 191.974 169.428C192.915 171.642 198.146 172.486 200.134 172.486C202.749 172.486 205.26 171.642 207.353 170.166ZM212.27 166.371C213.839 164.789 215.304 163.102 216.454 161.099C218.756 157.093 219.593 152.454 218.128 148.026C213.839 154.246 209.654 160.888 209.654 168.479C209.759 168.374 209.863 168.374 210.073 168.268C210.805 167.847 211.537 167.003 212.27 166.371Z" fill="white" fill-opacity="0.1"/>
<path d="M100.119 88.9841C101.061 92.5687 98.5498 96.1534 94.5743 95.9425C95.3067 100.265 96.4575 104.482 98.4452 108.489C99.3868 110.387 100.328 112.179 101.479 113.866C102.107 114.92 103.781 116.291 103.885 117.556C104.408 121.246 95.6205 126.096 93.1097 127.572C92.482 127.888 91.8543 127.572 91.645 127.045C91.3312 127.045 91.122 126.834 90.9127 126.518C86.728 119.032 80.974 112.917 73.86 108.383C72.9184 112.495 68.4199 114.288 65.0721 111.757C63.189 114.288 59.632 114.604 57.6442 112.074C56.598 113.128 55.1334 113.76 53.5641 113.76C50.4256 113.76 48.124 111.125 47.6009 108.173C43.73 108.594 41.3238 104.377 43.1023 101.214C41.4285 100.898 39.9638 99.738 39.5453 97.9457C38.9176 95.6262 40.173 93.9393 41.8469 92.7796C39.9638 91.409 39.0222 88.8786 39.8592 86.5591C40.8007 84.1342 43.3116 82.869 45.7178 83.1853C45.7178 83.0799 45.8224 82.869 45.8224 82.7636C46.5547 80.3387 48.2286 79.0735 50.2164 78.7572C48.5425 74.2237 51.4718 70.4281 55.1334 69.5847C55.4473 66.2109 58.0627 63.5751 61.4105 63.3642C62.9797 59.147 67.8968 57.9872 71.2446 61.1502C73.0231 60.0959 75.1154 59.6741 77.1032 59.885C79.9278 54.9297 87.1465 55.1406 89.6573 60.4122C91.7497 58.9361 94.679 58.5144 96.9806 59.885C99.9099 61.5719 101.061 65.3674 99.8052 68.4249C100.328 69.0575 100.747 69.7956 100.851 70.7444C105.768 71.2716 106.919 77.9138 102.525 80.3387C105.978 83.1853 104.199 88.3515 100.119 88.9841ZM91.2266 61.9936C91.5404 62.2045 91.7497 62.3099 92.0635 62.5208C93.842 63.8914 94.679 65.6837 94.8882 67.5815C96.039 67.0543 97.1898 66.9489 98.236 67.2652C98.7591 65.1566 98.1314 62.8371 96.1436 61.6773C94.4697 60.8339 92.6912 61.1502 91.2266 61.9936ZM79.4048 60.5176C80.6602 61.0448 81.7063 61.9936 82.334 63.3642C83.7987 61.7828 85.7864 60.8339 87.7742 60.9393C85.7864 57.7764 81.4971 57.671 79.4048 60.5176ZM57.3304 69.5847C58.1673 69.6901 59.1089 69.901 59.9458 70.4281C60.4689 66.6326 64.4444 64.4186 67.8968 66.1055C68.0014 64.7349 68.6291 63.5751 69.5707 62.5208C67.2691 60.623 64.0259 61.6773 63.2936 64.7349C63.189 65.1566 62.7705 65.4729 62.2474 65.4729C59.7366 65.4729 57.7488 67.1598 57.3304 69.5847ZM57.6442 107.013C57.0165 107.013 56.3888 106.907 55.7611 106.697C51.8902 105.326 50.6348 101.636 51.2625 98.0511C46.6593 98.262 43.5208 91.8307 47.4963 88.6678C47.4963 88.6678 47.3917 88.6678 47.3917 88.5623C46.4501 87.7189 45.8224 86.5591 45.6132 85.3994C44.0439 85.0831 42.1608 86.032 41.6377 87.6134C41.1146 89.5112 42.4746 91.409 44.2531 91.8307C44.567 91.9361 44.7762 92.147 44.8808 92.3579C45.1947 92.7796 45.1947 93.4122 44.567 93.7285C43.207 94.361 41.3238 95.0991 41.3238 96.8914C41.3238 98.6837 43.1023 99.6326 44.6716 99.1055C44.9855 99 45.2993 99 45.5085 99.2109C46.4501 99.2109 46.9732 100.581 46.0316 101.214C42.9977 102.901 45.0901 107.013 48.2286 105.958C48.8563 105.748 49.5886 106.275 49.5886 107.013C49.484 109.227 51.0533 111.652 53.5641 111.757C55.9703 111.757 57.6442 109.438 57.6442 107.013C57.6442 107.118 57.6442 107.118 57.6442 107.013ZM61.9336 100.371C62.1428 99.1055 63.9213 99.5272 64.0259 100.687C64.0259 100.792 64.0259 100.898 64.0259 100.898C64.2352 101.003 64.3398 101.109 64.549 101.32C67.7922 102.69 69.466 101.952 69.466 99.2109C69.466 98.3674 70.7215 97.9457 71.1399 98.7892C72.3953 101.53 76.5801 101.109 78.8817 99.8435C82.2294 98.0511 81.7063 95.8371 80.0325 93.2013C79.614 92.5687 80.1371 91.6198 80.8694 91.6198C83.0664 91.9361 84.1126 93.4122 84.3218 95.2045C86.2049 95.5208 88.1927 95.5208 89.8665 94.361C93.6328 91.8307 93.1097 86.032 88.6111 84.7668C87.6696 84.5559 87.5649 82.9745 88.6111 82.7636C89.9712 82.5527 91.2266 82.0256 92.3774 80.9713C94.9928 77.1757 94.0513 74.9617 89.4481 74.3291C88.088 74.6454 87.5649 72.5368 88.925 72.3259C89.9712 72.115 91.0173 72.115 91.8543 72.3259C93.5282 69.5847 93.2143 66.4218 90.7035 64.4186C87.8788 62.0991 84.3218 63.1534 82.8571 66.4218C82.4387 67.4761 80.974 66.8435 80.8694 65.8946C80.7648 63.786 79.7186 62.5208 78.254 61.9936C77.9401 62.0991 77.5216 61.9936 77.2078 61.6773C73.3369 61.0448 68.0014 64.4186 71.1399 69.163C71.8723 70.3227 70.0938 71.377 69.3614 70.2173C69.0476 69.6901 68.8383 69.2684 68.6291 68.8467C68.5245 68.8467 68.4199 68.7412 68.3153 68.6358C65.4906 65.7892 61.3059 68.1087 62.2474 72.115C62.4566 73.0639 61.2012 73.9074 60.4689 73.1694C59.3181 71.9042 57.9581 71.377 56.598 71.4825C56.4934 71.4825 56.2842 71.4825 56.1796 71.4825C53.2503 71.7988 50.9487 74.9617 52.4133 78.4409C52.4133 78.5464 52.4133 78.5464 52.5179 78.6518C53.878 78.8626 55.238 79.3898 56.2842 80.3387C57.2258 81.0767 55.8657 82.4473 54.9242 81.7093C52.8318 80.0224 49.1702 80.5495 48.5425 83.5016C48.3332 84.5559 48.6471 85.7157 49.5886 86.3483C50.5302 87.0863 51.4718 86.77 52.5179 86.6646C53.9826 86.5591 54.1918 88.5623 53.2503 89.3003C52.3087 90.0384 50.9487 90.0384 49.7979 89.7221C46.3455 92.0416 49.5886 96.5751 52.9364 94.5719C54.0872 93.8339 55.5519 95.3099 54.8195 96.4697C53.3549 98.8946 53.3549 102.479 56.1796 103.85C59.0043 105.431 61.4105 103.112 61.9336 100.371ZM88.925 97.1023C88.4019 97.3131 87.7742 97.4186 87.2511 97.4186C87.6696 99 91.4358 110.176 91.645 110.07C92.3774 109.649 90.7035 104.693 90.4942 103.744C89.9712 101.53 89.4481 99.3163 88.925 97.1023ZM81.4971 101.741C80.7648 102.268 79.7186 102.69 78.6724 103.006C79.1955 103.428 79.7186 103.85 80.2417 104.377C81.2879 105.431 81.9156 106.802 82.9618 107.751C84.3218 109.121 84.9495 107.751 84.531 106.486C84.3218 105.853 83.9033 105.22 83.4849 104.588C82.8571 103.534 82.2294 102.585 81.6017 101.53C81.6017 101.636 81.6017 101.636 81.4971 101.741ZM71.8723 107.329C70.5122 106.591 69.0476 105.853 67.5829 105.115C66.1183 105.326 64.549 104.904 63.3982 103.639C62.6659 105.115 61.2012 106.275 59.632 106.802C59.632 106.907 59.7366 107.013 59.7366 107.118C59.7366 108.173 59.4227 109.332 59.0043 110.281C60.1551 111.968 62.8751 112.39 63.8167 109.859C64.0259 109.121 64.9675 108.805 65.5952 109.438C67.7922 111.968 71.663 110.914 71.8723 107.329ZM93.1097 125.147C90.8081 119.981 87.9834 115.131 84.6356 110.597C83.2756 110.808 82.0202 109.859 81.1833 108.805C79.5094 106.697 78.1493 104.904 75.6385 103.534C74.0692 103.534 72.5 103.217 71.3492 102.479C71.1399 103.112 70.7215 103.639 70.303 104.061C79.8232 108.7 87.5649 116.08 92.7958 125.463C92.7958 125.252 92.9005 125.252 93.1097 125.147ZM96.039 123.46C92.2728 119.137 89.1342 114.393 86.4141 109.438C86.2049 109.754 85.9957 109.965 85.6818 110.176C85.6818 110.176 85.5772 110.176 85.5772 110.281C88.925 114.815 91.645 119.559 93.9466 124.725C94.679 124.304 95.3067 123.882 96.039 123.46ZM98.4452 121.668C96.4575 118.821 94.679 115.869 93.1097 112.812C92.9005 112.917 92.6912 113.022 92.2727 113.022C89.9712 113.233 89.0296 109.754 88.4019 108.278C87.0419 104.904 85.8911 101.425 85.0541 97.9457C85.0541 97.8403 85.0541 97.6294 85.0541 97.524C84.7403 97.524 84.4264 97.4186 84.0079 97.4186C83.7987 98.262 83.4848 99.1055 83.0664 99.9489C84.6356 102.058 87.1465 105.537 86.8326 108.067C86.8326 108.067 86.9372 108.173 86.9372 108.278C89.6573 113.55 93.0051 118.399 96.8759 122.933C97.5036 122.511 98.0267 122.089 98.4452 121.668ZM94.679 105.01C95.2021 109.965 98.6544 114.393 101.165 118.821C102.002 118.083 101.898 117.24 100.642 116.502L99.596 115.026C98.6544 113.55 97.7129 111.968 96.8759 110.387C96.039 108.594 95.3067 106.802 94.679 105.01ZM93.6328 101.847C93.0051 99.6326 92.5866 97.4186 92.2727 95.0991C91.8543 95.5208 91.3312 95.9425 90.8081 96.2588C90.8081 96.2588 90.8081 96.3642 90.9127 96.3642C91.9589 100.581 92.9005 104.799 93.7374 109.016C93.9466 109.859 94.1559 110.914 93.9466 111.863C95.5159 115.026 97.2944 118.083 99.3868 121.035C99.8052 120.613 100.224 120.192 100.538 119.77C97.2944 114.077 92.6912 108.489 93.6328 101.847ZM100.851 79.3898C100.956 79.0735 101.165 78.8626 101.479 78.7572C104.932 77.3866 103.571 72.7476 100.119 72.9585C99.596 72.9585 99.0729 72.4313 99.0729 71.9042C99.1775 69.901 97.6083 68.5304 95.7251 69.5847C95.4113 69.7956 95.0974 69.6901 94.7836 69.5847C94.5743 70.9553 94.1559 72.2205 93.4236 73.4856C94.5743 74.3291 95.4113 75.8051 95.5159 77.5975C95.7251 80.655 93.842 82.9745 91.3312 84.1342C93.9466 85.9265 95.0974 89.1949 93.842 92.4633C93.842 92.5687 93.9466 92.6741 93.9466 92.7796C93.9466 93.0959 94.0513 93.5176 94.0513 93.8339C96.9806 94.1502 99.0729 91.409 97.5036 88.5623C96.9806 87.7189 97.8175 86.8754 98.6544 86.9809C102.421 87.508 103.258 82.7636 100.014 81.2876C99.1775 80.8658 99.9099 79.3898 100.851 79.3898Z" fill="white" fill-opacity="0.1"/>
<path d="M71.2449 90.6709C69.1526 88.0351 65.3863 89.1949 64.7586 92.1469C63.8171 91.6198 62.6663 91.6198 61.934 92.4632C60.8878 93.623 61.5155 95.4153 62.7709 96.1533C63.3986 96.4696 63.9217 95.6262 63.294 95.2045C61.4109 94.1501 63.5032 91.6198 64.7586 93.4121C65.0725 93.8338 65.8048 93.7284 65.7002 93.0958C65.5956 90.2492 68.8387 89.1949 70.5126 91.3035C70.9311 91.9361 71.6634 91.1981 71.2449 90.6709Z" fill="white" fill-opacity="0.1"/>
<path d="M83.2759 78.23C81.8113 78.0191 80.6605 79.0735 80.1374 80.3386C79.4051 79.8115 78.4635 79.6006 77.522 79.9169C75.8481 80.4441 75.2204 82.3418 74.9065 83.9233C74.8019 84.5559 75.7435 84.8722 75.9527 84.2396C76.1619 83.3961 76.2666 82.5527 76.7896 81.9201C77.522 80.9712 79.0912 80.2332 79.8236 81.7092C80.0328 82.131 80.6605 82.0255 80.7651 81.6038C80.8697 80.9712 81.1836 80.1278 81.8113 79.8115C82.6482 79.3898 84.7406 79.8115 84.5314 81.1821C84.4267 81.8147 85.4729 82.131 85.5775 81.4984C85.7868 79.8115 84.8452 78.4409 83.2759 78.23Z" fill="white" fill-opacity="0.1"/>
<path d="M74.2787 76.1214C72.9186 75.3834 71.0355 74.7508 69.5709 75.9105C68.8385 76.5431 68.4201 77.3866 68.5247 78.23C64.5492 76.9648 60.9922 81.7093 63.8169 85.3993C64.2354 85.9265 64.9677 85.1885 64.5492 84.6613C62.143 81.4984 65.8046 77.5974 69.0478 79.7061C69.4663 80.0223 70.094 79.3898 69.7801 78.968C69.257 77.3866 69.7801 76.5431 71.454 76.3323C72.1863 76.3323 72.9186 76.6485 73.651 77.0703C74.2787 77.3866 74.8018 76.5431 74.2787 76.1214Z" fill="white" fill-opacity="0.1"/>
<path d="M154.939 134.003C154.207 139.802 152.219 146.233 145.419 146.55C141.548 146.76 138.619 144.757 137.05 141.805C136.945 141.911 136.84 142.016 136.631 142.016C131.505 143.597 126.274 142.332 121.985 139.275C118.741 136.955 114.871 133.265 115.917 128.837C116.963 124.409 121.357 121.984 125.646 122.089C129.412 122.195 135.271 123.671 137.991 126.834C140.083 122.827 143.013 117.345 148.558 117.556C156.299 118.083 155.567 128.204 154.939 134.003ZM136.108 139.802C135.69 138.326 135.48 136.85 135.585 135.268C135.69 133.16 136.213 131.157 136.84 129.259C136.84 129.259 136.84 129.259 136.736 129.153C135.166 126.096 129.936 124.831 126.692 124.514C121.88 123.987 115.394 127.256 118.951 133.265C122.194 138.853 129.936 141.7 135.899 139.802C136.108 139.802 136.108 139.802 136.108 139.802ZM147.825 119.875C147.616 119.875 151.487 118.926 147.302 119.77C143.117 120.613 132.028 137.588 141.339 143.176C148.976 147.709 152.115 139.064 152.638 133.16C153.161 129.259 154.521 119.77 147.825 119.875Z" fill="white" fill-opacity="0.1"/>
<path d="M144.059 140.013C142.594 140.013 142.594 142.227 144.059 142.227C145.524 142.227 145.524 140.013 144.059 140.013Z" fill="white" fill-opacity="0.1"/>
<path d="M147.825 138.853C146.361 138.853 146.361 141.067 147.825 141.067C149.185 141.173 149.185 138.853 147.825 138.853Z" fill="white" fill-opacity="0.1"/>
<path d="M142.908 137.799C141.443 137.799 141.443 140.013 142.908 140.013C144.373 140.013 144.373 137.799 142.908 137.799Z" fill="white" fill-opacity="0.1"/>
<path d="M127.634 136.217C126.169 136.217 126.169 138.431 127.634 138.431C129.099 138.537 129.099 136.217 127.634 136.217Z" fill="white" fill-opacity="0.1"/>
<path d="M131.4 132.105C129.936 132.105 129.936 134.319 131.4 134.319C132.865 134.319 132.865 132.105 131.4 132.105Z" fill="white" fill-opacity="0.1"/>
<path d="M130.982 136.639V137.061C130.982 138.537 133.179 138.537 133.179 137.061V136.639C133.283 135.163 130.982 135.163 130.982 136.639Z" fill="white" fill-opacity="0.1"/>
<path d="M124.077 132.633C123.031 132.105 122.508 130.946 122.717 129.786C123.031 128.415 120.938 127.783 120.52 129.153C119.997 131.262 120.938 133.476 122.822 134.53C124.286 135.268 125.437 133.371 124.077 132.633Z" fill="white" fill-opacity="0.1"/>
<path d="M146.988 121.984C145.105 123.355 143.85 125.041 143.117 127.256C142.699 128.626 144.896 129.259 145.314 127.888C145.837 126.307 146.779 124.936 148.139 123.987C149.29 123.038 148.139 121.141 146.988 121.984Z" fill="white" fill-opacity="0.1"/>
<path d="M136.422 45.3355C136.422 45.8626 136.003 46.2843 135.48 46.2843C133.074 46.4952 130.563 46.7061 128.157 45.968C127.843 46.0735 127.529 46.0735 127.111 45.968C125.332 45.5463 123.659 45.5463 121.88 45.8626C121.671 45.8626 121.462 45.8626 121.357 45.8626C119.997 46.4952 119.369 46.8115 117.486 46.8115C114.138 46.7061 110.686 46.6006 107.338 46.4952C106.71 46.4952 106.292 45.8626 106.397 45.23C104.723 45.4409 103.049 45.6518 101.375 45.8626C101.584 46.3898 101.48 47.2332 100.852 47.2332C98.1318 47.6549 95.4118 47.9712 92.5871 48.393C91.9594 48.4984 91.4363 48.1821 91.3317 47.4441C91.227 45.3355 91.1224 43.2268 90.9132 41.1182C90.5993 40.9073 90.3901 40.591 90.2855 40.1693C90.0762 38.7987 89.867 37.3227 89.867 35.9521C89.867 35.8466 89.867 35.8466 89.867 35.7412C89.7624 35.4249 89.7624 35.1086 89.867 34.7923C89.4485 32.6837 88.9254 30.5751 88.2977 28.361C88.2977 28.2556 88.2977 28.1502 88.2977 28.0447C87.2516 28.0447 87.2516 26.4633 88.1931 26.147C95.3071 23.3003 102.421 20.1374 109.64 17.3962C109.954 16.9744 110.477 16.6581 111.104 16.6581C111.314 16.6581 111.628 16.6581 111.837 16.6581C112.151 16.5527 112.464 16.4473 112.883 16.3418C114.034 15.9201 115.08 15.6038 116.126 15.393C116.44 15.1821 116.858 14.9712 117.172 14.6549C118.009 14.0224 118.742 14.2332 119.265 14.7604C124.391 14.1278 129.203 15.0767 134.748 17.2907C135.271 17.5016 135.376 17.9233 135.376 18.345V18.4505C136.736 27.5176 137.154 36.3738 136.422 45.3355ZM95.0979 25.6198C104.618 24.5655 114.138 22.8786 123.449 20.6645C123.345 20.1374 123.554 19.5048 123.972 19.0831C124.809 18.0287 125.96 17.2907 127.216 16.9744C125.228 16.5527 123.135 16.2364 120.834 16.5527C120.52 16.5527 120.206 16.6581 119.892 16.6581C119.892 17.1853 119.578 17.8179 119.055 18.1342C116.754 19.8211 113.929 20.77 111.104 20.77C110.267 20.77 109.744 20.3482 109.535 19.8211C104.723 21.7188 99.9103 23.6166 95.0979 25.6198ZM134.853 36.7955C134.853 31.2077 134.434 25.6198 133.702 20.0319C133.388 20.1374 133.074 20.2428 132.656 20.3482C132.133 20.77 131.505 20.9808 130.877 20.77C129.413 21.1917 127.948 21.508 126.588 21.8243C126.169 22.246 125.542 22.3514 125.019 22.246C113.615 24.9872 102.003 26.885 90.2855 28.0447C90.8086 29.8371 91.227 31.524 91.5409 33.3163C91.7501 33.3163 91.9594 33.3163 92.2732 33.4217C94.0517 33.8434 95.3071 35.3195 95.5164 37.1118C95.7256 38.9041 94.6794 40.6965 93.1102 41.4345C93.0055 41.4345 92.9009 41.5399 92.7963 41.5399C93.0055 43.2268 93.1102 44.8083 93.1102 46.4952C95.0979 46.1789 97.0856 45.968 99.178 45.6518C98.5503 42.9105 99.8057 39.7476 102.84 39.3259C106.187 38.7987 108.28 41.7508 108.28 44.5974C110.477 44.7029 112.674 44.7029 114.871 44.8083C116.44 44.8083 117.486 44.9137 118.846 44.492C118.637 44.1757 118.637 43.6486 118.846 43.2268C119.683 40.9073 121.775 39.115 124.286 39.2204C126.797 39.3259 128.889 41.2236 129.517 43.5431C129.517 43.754 129.622 43.9648 129.622 44.0703C131.4 44.7029 133.388 44.9137 134.434 43.8594C135.48 42.6997 134.853 38.4824 134.853 36.7955Z" fill="white" fill-opacity="0.1"/>
<path d="M127.739 28.8882C127.634 28.8882 127.634 28.8882 127.529 28.8882C127.32 28.7827 127.111 28.6773 126.797 28.8882C124.495 29.837 122.508 32.262 123.972 34.7923C125.332 37.1118 128.157 36.5846 129.412 34.476C130.668 32.5783 130.982 28.7827 127.739 28.8882Z" fill="white" fill-opacity="0.1"/>
<path d="M102.63 29.6262C100.224 29.6262 98.5503 32.3674 99.5965 34.5815C100.643 36.5846 103.467 36.9009 105.037 35.4249C105.35 35.1086 105.455 34.7923 105.56 34.3706C106.501 32.262 104.932 29.5207 102.63 29.6262Z" fill="white" fill-opacity="0.1"/>
<path d="M116.022 28.4665C115.917 28.4665 115.812 28.4665 115.708 28.4665C115.185 27.4122 113.72 26.7796 112.569 27.8339C110.058 30.1534 107.861 33.6326 109.954 36.901C111.941 40.0639 115.812 39.3259 117.695 36.4792C119.369 34.0543 119.683 29.3099 116.022 28.4665Z" fill="white" fill-opacity="0.1"/>
<path d="M131.923 40.9073C130.668 40.9073 130.668 42.8051 131.923 42.8051C133.179 42.9105 133.179 40.9073 131.923 40.9073Z" fill="white" fill-opacity="0.1"/>
<path d="M131.61 37.4281C130.354 37.4281 130.354 39.3259 131.61 39.3259C132.865 39.3259 132.865 37.4281 131.61 37.4281Z" fill="white" fill-opacity="0.1"/>
<path d="M111.523 41.8562H111.209C109.954 41.8562 109.954 43.754 111.209 43.754H111.523C112.778 43.8594 112.778 41.8562 111.523 41.8562Z" fill="white" fill-opacity="0.1"/>
<path d="M94.8888 29.9425C93.6334 29.9425 93.6334 31.8403 94.8888 31.8403C96.1442 31.9457 96.1442 29.9425 94.8888 29.9425Z" fill="white" fill-opacity="0.1"/>
<path d="M151.8 58.0926C150.65 67.6869 141.443 72.2204 132.655 71.4824C132.655 71.5878 132.655 71.6933 132.551 71.9041C132.446 72.5367 131.4 72.3259 131.505 71.5878C131.505 71.4824 131.505 71.4824 131.505 71.377C131.191 71.2715 130.981 70.9553 131.191 70.639C131.4 70.1118 131.714 69.6901 132.028 69.1629C132.865 65.6837 134.434 62.4153 137.468 60.2013C141.652 57.1438 146.57 59.1469 151.173 57.5655C151.487 57.46 151.905 57.7763 151.8 58.0926ZM134.015 66.6326C135.375 65.0511 137.049 63.7859 138.932 62.7316C140.606 61.8882 142.28 61.361 144.163 60.9393C146.256 60.5176 148.348 60.3067 149.917 58.9361C146.36 59.5687 142.594 58.5144 139.351 60.2013C136.735 61.6773 135.062 63.9968 134.015 66.6326ZM150.44 59.885C148.139 61.7827 144.896 61.6773 142.176 62.5208C138.409 63.6805 135.271 66.2108 133.074 69.5846C132.969 69.9009 132.969 70.1118 132.865 70.4281C140.397 70.9553 148.557 67.5815 150.44 59.885Z" fill="white" fill-opacity="0.1"/>
<path d="M149.813 83.7125C149.394 88.8786 148.348 95.2045 145 99.3163C143.536 101.109 141.548 102.585 139.246 102.901C136.526 103.323 134.539 101.847 131.923 101.636C129.308 101.425 127.634 103.006 125.123 102.901C123.031 102.796 121.147 101.636 119.578 100.16C116.126 96.8914 114.347 91.8307 114.243 87.0863C114.033 78.1246 121.357 66.6326 131.295 71.2716L131.4 71.377C135.899 69.0575 141.443 67.476 145.942 70.8498C149.917 73.9073 150.127 79.2843 149.813 83.7125ZM147.093 76.1214C144.163 69.4792 137.468 70.7444 132.342 73.4856C131.923 73.6965 131.4 73.5911 131.191 73.3802C130.877 73.4856 130.668 73.4856 130.249 73.3802C119.683 68.4249 114.87 84.1342 116.963 91.6198C118.009 95.4153 120.938 101.003 125.437 100.898C127.738 100.898 129.308 99 131.609 98.8946C135.899 98.7891 136.526 104.061 142.594 99.1054C145.314 96.8914 146.36 92.3578 147.093 89.0895C147.72 85.1885 148.662 79.9169 147.093 76.1214Z" fill="white" fill-opacity="0.1"/>
<path d="M130.877 61.0447C130.04 59.9904 128.261 61.0447 129.098 62.0991C131.505 65.3674 132.028 69.3738 130.563 73.2748C130.04 74.5399 132.132 75.0671 132.551 73.8019C134.225 69.5847 133.597 64.7348 130.877 61.0447Z" fill="white" fill-opacity="0.1"/>
<path d="M121.984 76.8594C118.846 81.2875 118.218 86.77 120.101 91.8307C120.834 93.7284 123.867 92.885 123.135 90.9872C121.461 86.6645 121.984 82.2364 124.704 78.4409C125.855 76.754 123.135 75.1725 121.984 76.8594Z" fill="white" fill-opacity="0.1"/>
<path d="M124.077 93.9393C122.089 93.9393 122.089 97.1022 124.077 97.1022C126.064 97.1022 126.064 93.9393 124.077 93.9393Z" fill="white" fill-opacity="0.1"/>
<path d="M205.574 92.9904C205.051 94.0447 204.005 94.7828 202.959 95.2045C201.389 95.7316 199.82 95.4153 198.356 94.8882C196.054 94.0447 193.229 91.7252 190.823 93.5176C190.405 93.8339 189.777 93.4121 189.881 92.9904C189.568 93.3067 189.254 93.5176 188.94 93.8339C188.626 94.1502 187.894 93.8339 188.103 93.3067C189.045 90.1438 187.789 87.0863 187.894 83.9233C187.998 81.2876 189.358 79.4952 191.346 77.9138C193.125 76.4377 195.008 75.0671 195.008 72.4313C195.008 70.9553 194.589 69.5847 194.38 68.1086C194.066 65.1566 194.903 62.6262 196.996 60.5176C197.519 59.9904 198.251 60.8339 197.728 61.2556C194.485 64.4185 195.74 67.6869 196.054 71.6933C196.263 74.2237 195.217 76.016 193.334 77.7029C192.078 78.7572 190.509 79.7061 189.672 81.2876C188.94 82.5527 188.94 84.0288 189.045 85.5048C189.254 84.7668 189.672 84.2396 190.509 83.9233C191.137 83.607 191.974 83.7125 192.602 83.8179C192.915 83.8179 193.752 84.1342 194.066 83.9233C195.217 83.3962 195.426 82.2364 195.112 81.2876C194.694 80.2332 194.066 79.0735 194.589 77.9138C195.008 76.8594 196.054 76.3323 197.1 76.1214C198.774 75.8051 200.134 77.1757 201.703 77.1757C204.842 77.2812 203.586 73.6965 204.633 71.9042C205.26 70.8499 206.411 70.2173 207.667 70.0064C208.294 69.901 209.027 69.901 209.654 70.0064C211.119 68.7412 210.282 67.5815 207.353 66.5272C207.039 66.6326 206.725 66.738 206.307 66.8435C205.888 66.9489 205.47 67.0543 205.051 66.8435C204.528 66.6326 204.11 66.3163 203.9 65.7892C203.063 64.1023 204.423 62.4154 205.574 61.361C207.143 60.2013 209.131 59.147 208.19 56.8275C207.353 54.6134 205.156 54.508 203.482 55.7732C202.436 56.5112 201.808 57.8818 200.553 58.3035C199.088 58.8307 197.832 57.8818 197.205 56.5112C196.786 55.4569 196.786 54.4026 196.891 53.2428C196.996 51.5559 197.205 51.1342 196.159 49.6582C195.74 48.393 194.903 47.9713 193.648 48.393C192.915 48.4984 192.392 48.9202 191.974 49.5527C190.195 51.2396 190.091 53.77 189.986 56.0895C189.882 57.0384 189.986 58.409 189.463 59.3578C188.626 60.7285 186.952 60.4122 185.906 59.3578C185.383 58.8307 185.278 58.0927 184.86 57.5655C184.232 56.0895 182.872 55.984 180.571 57.1438C180.152 57.8818 179.943 58.6198 180.047 59.4633C179.943 61.361 180.78 63.1534 181.198 65.0511C181.512 65.6837 181.721 66.4217 181.826 67.1598C182.14 69.2684 180.152 73.2748 183.709 73.0639C185.278 72.9585 186.952 73.0639 188.208 74.1182C189.045 74.8563 189.672 76.1214 189.358 77.2812C189.045 78.8626 187.475 79.2844 186.22 80.0224C183.604 81.6039 187.057 84.1342 187.475 86.3483C187.789 87.8243 187.475 89.1949 186.848 90.4601C186.848 90.5655 186.743 90.5655 186.743 90.5655C186.743 90.9872 186.638 91.409 186.638 91.7253C186.638 91.9361 186.534 92.0415 186.324 92.0415C186.115 92.2524 185.697 92.2524 185.592 91.9361C184.546 89.4058 183.5 88.984 180.78 89.4058C179.943 89.5112 179.21 89.7221 178.374 89.5112C177.327 89.3003 176.177 88.6677 175.967 87.508C175.758 86.5591 176.595 86.1374 176.595 85.3994C176.595 81.6038 173.143 84.9776 171.783 85.5048C170.423 86.032 169.063 85.7157 168.121 84.6614C167.179 83.7125 166.97 82.3419 167.179 81.0767C167.389 80.3387 167.807 79.9169 168.121 79.1789C168.226 78.9681 168.539 78.8626 168.644 78.6518C169.899 74.3291 167.179 76.2269 166.029 75.9106C164.773 75.4888 163.518 75.6997 162.785 74.3291C162.158 73.2748 162.262 71.9042 162.785 70.8499C163.413 69.3738 164.773 68.6358 166.342 68.4249C167.912 68.2141 169.063 69.163 170.527 69.163C173.666 69.2684 172.201 67.2652 172.201 65.8946C172.201 65.262 172.41 64.7348 172.724 64.1023C173.352 62.9425 174.503 62.0991 175.758 61.7828C177.223 61.4665 178.687 61.9936 179.734 62.9425C179.106 60.4122 178.478 57.7764 180.257 55.8786C182.035 53.9809 184.441 54.508 185.592 56.6166C185.801 57.0384 186.011 57.7764 186.324 58.0927C188.835 60.3067 188.731 57.8818 188.835 56.9329C188.94 56.0895 188.94 55.246 189.045 54.4026C189.149 53.1374 189.358 51.8722 189.881 50.7125C190.823 48.7093 192.602 47.0224 195.008 47.3387C197.728 47.655 198.251 50.1853 198.146 52.6102C198.042 53.5591 197.937 54.4026 198.146 55.246C198.46 56.8275 198.565 57.1438 200.134 56.8275C201.703 56.6166 201.076 56.8275 201.913 56.0895C202.854 55.246 203.482 54.4026 204.737 54.0863C206.725 53.5591 208.922 54.4026 209.654 56.4058C210.805 59.3578 208.294 60.623 206.411 62.2045C205.679 62.6262 205.26 63.1534 205.051 63.9968C205.574 64.524 206.097 65.0511 206.62 65.6837C206.83 65.6837 207.457 65.3674 207.667 65.3674C208.085 65.262 208.503 65.262 208.922 65.262C209.759 65.3674 210.596 65.8946 211.119 66.6326C211.956 67.7924 211.747 69.163 211.014 70.1118C212.688 70.639 214.153 71.9042 214.781 73.3802C215.408 74.7508 215.408 76.3323 214.781 77.7029C214.571 78.1246 214.257 78.4409 214.048 78.8626C213.525 79.7061 213.316 79.1789 213.316 80.4441C213.316 81.9201 213.211 81.0767 213.944 81.7093C215.094 82.7636 216.141 82.6582 216.454 84.4505C216.664 85.5048 216.35 86.77 215.722 87.6134C214.885 88.7732 213.525 89.3003 212.165 89.4058C210.491 89.6166 209.131 88.5623 207.562 88.5623C205.365 88.7732 206.202 91.7252 205.574 92.9904ZM173.352 65.0511C172.724 66.6326 173.666 67.6869 173.456 69.163C173.038 71.9042 170.213 70.2173 168.749 69.7955C167.284 69.3738 165.192 69.2684 164.041 70.5336C163.413 71.2716 162.785 73.0639 163.518 73.9074C163.936 74.4345 165.61 74.8562 166.238 74.9617C167.284 75.1725 168.121 74.9617 169.063 75.5943C171.678 77.3866 168.958 78.9681 168.226 80.8658C167.912 81.393 167.912 82.0256 168.33 82.6582C168.226 84.0288 168.853 84.4505 170.213 84.0288C172.41 84.2396 171.26 84.2396 172.515 83.7125C173.143 83.3962 173.666 82.869 174.293 82.6582C175.13 82.3419 176.177 82.3419 177.013 82.869C177.537 83.2907 177.85 83.8179 177.85 84.4505C177.85 84.9776 177.432 85.3994 177.327 85.8211C177.013 89.3003 179.524 88.3514 181.094 88.1406C183.291 87.8243 184.546 88.3514 185.592 89.8275C185.592 87.8243 184.964 85.8211 183.5 84.4505C182.349 83.2907 180.884 82.9745 179.629 82.0256C178.583 81.1821 178.374 80.4441 178.06 79.0735C177.746 77.7029 177.955 76.6486 176.909 75.5943C175.235 73.9074 173.143 74.54 171.26 75.3834C170.632 75.6997 170.109 74.7508 170.736 74.4345C172.62 73.4856 174.817 72.9585 176.804 74.0128C179.315 75.3834 178.374 77.2812 179.21 79.6007C179.838 81.4984 182.349 81.9201 183.709 83.0799C184.546 83.7125 185.174 84.5559 185.697 85.5048C186.115 86.1374 186.324 86.8754 186.534 87.6134C186.638 86.4537 186.324 85.3994 185.592 84.3451C185.174 83.8179 184.546 83.3962 184.128 82.7636C183.604 81.9201 183.604 81.1821 184.023 80.3387C184.337 79.8115 184.86 79.3898 185.383 79.0735C185.801 78.7572 186.429 78.6518 186.848 78.3355C187.266 77.9138 188.208 76.2269 188.103 75.4888C187.475 72.6422 182.872 74.6454 181.198 73.8019C178.897 72.6422 180.989 68.9521 180.675 67.2652C180.675 66.9489 180.57 66.6326 180.361 66.3163C180.257 66.2109 180.152 66.1054 180.152 66C180.152 65.8946 180.152 65.8946 180.152 65.7892C178.687 63.1534 174.817 61.361 173.352 65.0511ZM189.463 91.9361C189.568 91.8307 189.672 91.7253 189.777 91.6198C189.672 91.0927 189.568 90.5655 189.463 90.1438C189.568 90.6709 189.568 91.3035 189.463 91.9361ZM204.633 92.4633C205.365 90.8818 204.319 90.2492 204.633 88.984C204.737 88.3515 205.156 87.8243 205.783 87.6134C207.248 87.0863 209.445 88.5623 211.014 88.5623C213.107 88.6677 216.036 87.1917 215.199 84.5559C214.676 82.7636 213.107 83.1853 212.06 82.2364C211.537 81.8147 211.328 81.393 211.328 80.655C211.328 80.1278 211.642 79.8115 211.956 79.4952C212.897 78.3355 214.048 77.492 213.944 75.8051C213.839 73.9074 211.956 72.0096 209.864 71.2716C209.654 71.377 209.55 71.4824 209.34 71.5879C208.922 71.7987 208.503 71.377 208.608 70.9553C207.143 70.8499 205.679 71.4824 205.156 73.2748C204.737 74.4345 205.156 75.9106 204.528 77.0703C204.005 78.0192 203.168 78.4409 202.122 78.4409C201.389 78.4409 200.657 78.0192 200.029 77.8083C199.506 77.5975 198.983 77.3866 198.46 77.2812C195.635 78.0192 194.799 79.1789 195.845 80.7604C196.577 82.4473 196.996 84.4505 194.589 84.9776C192.811 85.2939 189.254 83.9233 189.986 87.4026C190.195 88.6677 190.614 89.7221 190.718 90.8818C191.765 90.1438 192.811 89.5112 194.066 89.0895C195.531 88.6677 196.996 88.6677 198.356 88.246C200.239 87.6134 201.389 86.1374 202.331 84.4505C203.9 81.6038 206.62 77.3866 210.387 79.8115C210.91 80.1278 210.387 81.0767 209.864 80.7604C205.365 77.8083 203.377 86.2428 200.657 88.3515C198.983 89.5112 197.1 89.6166 195.217 90.0384C193.439 90.4601 192.078 91.1981 190.823 92.2524V92.3578C193.857 90.8818 196.577 93.7284 199.611 94.361C201.494 94.5719 203.796 94.2556 204.633 92.4633Z" fill="white" fill-opacity="0.1"/>
<path d="M166.342 129.153C164.459 123.987 170.946 120.824 170.736 115.869C170.527 110.914 166.133 107.645 166.97 102.374C167.493 98.7892 169.795 95.5208 172.933 93.7285C177.013 91.409 182.035 93.7285 185.906 91.1981C185.906 90.3547 186.952 89.5112 187.684 90.3547C188.835 91.6199 189.881 91.6199 190.718 93.0959C190.823 93.3068 190.718 93.5176 190.718 93.7285C191.869 97.4186 190.928 96.4697 192.811 99.2109C194.903 102.268 196.368 106.064 195.322 109.754C194.275 113.444 190.718 115.869 187.371 117.134C180.57 119.77 174.503 120.086 169.062 125.674C168.539 126.728 168.226 127.783 168.539 128.626C168.853 129.891 166.865 130.419 166.342 129.153ZM172.201 120.192C173.561 119.348 175.026 118.505 176.595 117.978C181.303 116.185 187.371 116.291 191.137 112.495C197.414 106.169 189.986 102.268 188.417 96.786C188.208 96.1534 188.417 95.2045 188.208 94.6774C187.894 93.7285 187.475 93.3068 187.057 92.9905C187.057 92.9905 187.057 93.0959 186.952 93.0959C184.232 94.9937 181.617 94.4665 178.478 94.5719C171.573 94.8882 167.598 101.003 169.586 107.54C170.632 110.914 173.038 113.866 173.038 117.451C173.038 118.189 172.724 119.137 172.201 120.192Z" fill="white" fill-opacity="0.1"/>
<path d="M185.906 115.869C186.429 115.974 186.743 115.342 186.429 115.026C181.826 110.703 176.386 107.645 170.423 105.958C178.687 104.693 186.848 107.751 194.485 110.703C195.008 110.914 195.322 110.176 195.008 109.859C188.521 102.69 180.047 97.9457 170.632 96.1533C170.004 96.0479 169.69 96.9968 170.318 97.2077C178.792 98.7891 186.429 102.901 192.602 108.911C184.651 105.853 176.281 103.217 167.807 105.431C167.284 105.537 167.284 106.38 167.807 106.486C173.875 107.645 179.315 110.281 184.023 114.288C179.629 113.022 175.235 111.968 170.736 111.019C170.213 110.914 169.795 111.757 170.318 111.968C173.98 113.76 177.432 115.869 180.571 118.399C181.094 118.821 181.826 118.083 181.303 117.661C179.001 115.869 176.595 114.182 174.084 112.706C178.06 113.655 182.035 114.604 185.906 115.869Z" fill="white" fill-opacity="0.1"/>
<path d="M191.346 98.4729C186.743 97.9457 182.454 96.4697 178.478 94.0447C177.955 93.7284 177.432 94.5719 177.955 94.9936C182.035 97.524 186.534 99.1054 191.346 99.6326C191.974 99.6326 191.974 98.5783 191.346 98.4729Z" fill="white" fill-opacity="0.1"/>
<path d="M177.641 180.182C172.933 184.083 165.819 183.661 161.007 180.182C156.508 176.914 153.893 171.115 155.881 165.738C156.927 162.997 159.019 160.466 161.739 159.201C164.982 157.725 170.841 158.358 171.887 153.613C172.096 152.665 173.352 152.665 173.77 153.403C174.503 154.457 174.607 154.562 174.817 155.089C176.177 154.351 177.537 153.719 179.001 153.192C179.943 152.875 180.78 154.246 180.047 154.984C179.001 155.827 178.478 157.093 178.792 158.463V158.569C180.884 165.738 184.651 174.489 177.641 180.182ZM176.7 159.096C176.7 158.99 176.595 158.885 176.595 158.674C176.49 158.463 176.595 158.252 176.595 158.042C176.595 157.936 176.595 157.725 176.595 157.62C172.62 161.204 172.829 168.479 171.05 173.118C170.423 174.805 168.958 177.863 166.97 179.339C169.167 179.444 171.469 178.601 173.143 177.125C175.34 175.121 176.072 172.169 176.281 169.217C176.595 165.949 176.177 162.47 176.7 159.096ZM165.296 164.789C163.204 166.476 161.216 168.585 160.588 171.326C160.065 173.435 160.798 175.543 162.158 177.125C162.576 174.911 164.459 172.275 165.192 171.22C167.807 167.214 170.632 163.208 172.201 158.78C170.318 160.994 167.703 162.786 165.296 164.789ZM173.666 157.514C172.724 161.099 170.946 164.262 168.958 167.425C167.912 169.112 166.761 170.799 165.61 172.486C164.982 173.435 164.25 174.383 163.832 175.438C162.367 177.546 163.099 178.706 165.924 178.917C166.552 178.495 167.075 178.073 167.493 177.441C172.41 171.958 170.423 161.626 175.967 156.882C175.863 156.987 175.758 156.987 175.653 157.093C175.444 157.198 175.235 157.198 175.026 157.198C174.712 157.514 174.189 157.725 173.666 157.514ZM161.635 178.073C159.542 175.754 158.81 172.38 160.17 169.428C162.576 164.157 168.644 162.153 171.783 157.62C170.632 158.674 169.167 159.518 167.703 160.045C165.61 160.888 163.518 160.466 161.425 161.732C158.287 163.84 156.613 168.058 157.345 171.642C157.973 174.173 159.542 176.387 161.635 178.073ZM177.537 161.732C177.327 166.16 177.955 170.693 176.177 174.7C174.607 178.179 171.05 180.709 167.284 180.604C169.272 181.026 171.364 180.92 173.352 180.288C181.931 177.335 179.734 168.585 177.537 161.732Z" fill="white" fill-opacity="0.1"/>
<path d="M213.002 114.709C206.934 115.869 206.202 123.038 204.214 127.783C202.645 131.684 199.716 134.32 196.054 136.217C194.38 137.166 192.602 137.904 190.823 138.748C188.835 145.917 184.964 153.192 177.013 154.562C176.804 154.562 176.7 154.562 176.595 154.457C175.863 155.089 175.13 155.722 174.293 156.355C173.77 156.776 173.038 156.038 173.561 155.617V155.511C173.561 150.661 174.293 145.601 177.955 142.121C179.106 141.067 180.361 140.224 181.721 139.486C181.721 139.38 181.721 139.38 181.721 139.275C183.5 131.157 186.22 122.828 192.811 117.556C193.229 117.24 193.962 117.661 193.648 118.189C192.497 120.297 191.66 122.511 190.928 124.725C191.555 123.776 192.183 122.827 192.915 121.879C196.368 117.24 200.448 113.233 204.946 109.649L205.051 109.543C205.574 109.121 205.993 109.965 205.679 110.387C199.297 117.872 196.054 127.466 189.881 135.163C198.565 129.364 200.971 115.447 212.479 113.655C213.42 113.55 213.734 114.604 213.002 114.709ZM192.915 123.882C189.777 128.31 187.266 133.265 184.755 138.01C185.801 137.482 187.894 136.217 187.998 136.112C194.066 129.364 197.309 120.719 202.436 113.339C198.879 116.396 195.635 119.981 192.915 123.882ZM183.081 138.853C185.278 134.952 187.266 131.051 189.568 127.256C189.463 127.15 189.463 127.045 189.463 126.834C189.986 124.514 190.823 122.195 191.765 120.086C186.848 125.147 184.546 132 183.081 138.853ZM186.429 141.067C185.383 141.7 184.337 142.438 183.291 143.281C179.838 146.233 177.118 150.029 175.34 154.246C179.629 150.45 183.395 146.022 186.429 141.067ZM189.568 139.38C188.94 139.697 188.417 139.907 187.789 140.224C187.894 140.329 181.721 149.502 177.85 153.192C184.441 151.505 187.789 145.495 189.568 139.38ZM207.98 116.502C201.18 120.613 198.251 130.102 191.974 135.058C189.463 136.955 186.638 138.115 183.814 139.591C183.709 139.697 181.617 140.751 180.884 141.173C176.595 143.914 175.026 148.131 174.607 152.875C176.281 149.291 178.583 146.022 181.512 143.281C184.023 140.962 193.02 136.428 194.066 135.901C196.472 134.741 198.983 133.371 200.762 131.262C202.959 128.732 203.691 125.463 204.737 122.406C205.574 120.403 206.62 118.189 207.98 116.502Z" fill="white" fill-opacity="0.1"/>
<path d="M76.6848 133.265C76.4756 135.268 75.7432 136.85 75.6386 138.853C75.6386 139.697 75.534 140.645 75.3248 141.489C74.3832 145.495 71.8724 148.974 68.1061 150.767C63.9214 152.665 60.8875 150.872 56.7028 150.661C54.9243 150.556 50.9488 152.137 50.1119 149.396C49.6934 148.026 50.5303 147.815 50.8442 146.76C51.6811 144.23 51.8904 142.121 52.3088 139.486C53.7735 130.946 62.7706 128.099 70.1985 130.102C72.1862 128.626 75.534 128.099 76.6848 131.051C76.9987 131.789 76.7894 132.527 76.6848 133.265ZM74.0694 133.687C73.0232 133.16 72.0816 132.633 71.0354 132C70.8262 132.211 70.5123 132.211 70.3031 132.211C70.0939 132.316 69.8846 132.316 69.6754 132.211C62.7706 130.313 53.9827 133.371 54.0873 141.805C54.0873 143.387 54.2966 144.441 53.9827 145.917C53.6689 147.604 52.6227 146.339 53.6689 147.815C54.6104 149.185 54.2966 147.92 55.552 148.131C61.5152 149.08 67.2692 151.294 71.4539 145.074C73.337 142.227 73.1278 139.38 73.4416 136.112C73.4416 136.217 73.6509 134.425 73.7555 134.53C73.8601 134.214 73.9647 133.898 74.0694 133.687Z" fill="white" fill-opacity="0.1"/>
<path d="M69.7798 140.751C68.4198 140.751 68.4198 142.859 69.7798 142.859C71.1398 142.859 71.1398 140.751 69.7798 140.751Z" fill="white" fill-opacity="0.1"/>
<path d="M70.5122 136.217C69.1522 136.217 69.1522 138.326 70.5122 138.326C71.8722 138.326 71.8722 136.217 70.5122 136.217Z" fill="white" fill-opacity="0.1"/>
<path d="M67.0601 139.38C65.7 139.38 65.7 141.489 67.0601 141.489C68.3155 141.489 68.3155 139.38 67.0601 139.38Z" fill="white" fill-opacity="0.1"/>
<path d="M68.106 134.847C66.7459 134.847 66.7459 136.955 68.106 136.955C69.3614 136.955 69.3614 134.847 68.106 134.847Z" fill="white" fill-opacity="0.1"/>
<path d="M57.6445 145.39C56.2845 145.39 56.2845 147.498 57.6445 147.498C59.0046 147.498 59.0046 145.39 57.6445 145.39Z" fill="white" fill-opacity="0.1"/>
<path d="M184.023 9.80512C182.558 16.2364 175.758 19.2939 170.109 16.2364C169.376 16.7636 168.121 15.8147 168.644 14.7604C170.632 10.754 169.899 6.00959 166.761 2.84665C165.819 1.89777 167.284 0.421735 168.225 1.37062C170.946 4.21726 172.201 8.01279 171.678 11.8083C174.816 9.48883 179.001 8.85624 182.977 8.53995C183.709 8.43451 184.127 9.17253 184.023 9.80512Z" fill="white" fill-opacity="0.1"/>
<path d="M178.269 34.1598C176.49 43.2269 166.656 47.0224 158.391 44.1758C150.022 41.3291 145.419 32.1566 148.139 23.6166C150.65 15.4984 159.228 11.492 167.179 13.4952C167.284 13.4952 167.389 13.6007 167.493 13.6007C176.7 14.9713 179.943 25.7253 178.269 34.1598ZM166.97 15.7093C166.761 15.7093 166.656 15.6039 166.552 15.6039C151.277 11.8083 142.908 33.1055 156.508 41.0128C163.308 45.0192 172.933 43.1214 175.863 35.2141C178.478 28.2556 175.026 16.5527 166.97 15.7093Z" fill="white" fill-opacity="0.1"/>
<path d="M174.607 28.7828C174.293 27.2013 171.782 27.8339 172.201 29.4153C173.352 34.6869 169.167 39.0096 164.041 38.5879C162.471 38.4824 162.471 41.0128 164.041 41.1182C170.946 41.7508 176.072 35.5304 174.607 28.7828Z" fill="white" fill-opacity="0.1"/>
<path d="M171.887 24.7764C170.213 24.7764 170.213 27.3067 171.887 27.3067C173.561 27.3067 173.561 24.7764 171.887 24.7764Z" fill="white" fill-opacity="0.1"/>
<path d="M154.416 36.163C153.788 36.163 153.788 37.2173 154.416 37.2173C155.148 37.2173 155.148 36.163 154.416 36.163Z" fill="white" fill-opacity="0.1"/>
<path d="M155.462 32.262C154.835 32.262 154.835 33.3163 155.462 33.3163C156.195 33.3163 156.195 32.262 155.462 32.262Z" fill="white" fill-opacity="0.1"/>
<path d="M152.324 33C151.696 33 151.696 34.0543 152.324 34.0543C153.056 34.0543 153.056 33 152.324 33Z" fill="white" fill-opacity="0.1"/>
<path d="M159.333 34.3706C158.705 34.3706 158.705 35.4249 159.333 35.4249C159.961 35.4249 159.961 34.3706 159.333 34.3706Z" fill="white" fill-opacity="0.1"/>
<path d="M154.102 26.6741H153.788C153.16 26.6741 153.16 27.7284 153.788 27.7284H154.102C154.73 27.7284 154.73 26.6741 154.102 26.6741Z" fill="white" fill-opacity="0.1"/>
<path d="M160.065 19.2939C159.438 19.2939 159.438 20.3483 160.065 20.3483C160.693 20.3483 160.693 19.2939 160.065 19.2939Z" fill="white" fill-opacity="0.1"/>
<path d="M161.425 22.7732H161.111C160.484 22.7732 160.484 23.8275 161.111 23.8275H161.425C162.053 23.8275 162.053 22.7732 161.425 22.7732Z" fill="white" fill-opacity="0.1"/>
<path d="M167.284 21.7189H166.97C166.342 21.7189 166.342 22.7732 166.97 22.7732H167.284C168.016 22.7732 168.016 21.7189 167.284 21.7189Z" fill="white" fill-opacity="0.1"/>
<path d="M136.526 183.978C134.12 198.316 113.615 198 106.501 186.824C103.572 182.185 103.99 176.597 102.107 171.537C100.642 167.53 92.796 157.831 98.7592 154.668C98.7592 154.562 98.7592 154.562 98.7592 154.457C98.7592 153.613 98.9684 152.981 99.1777 152.243C93.9468 154.035 93.9468 160.256 96.0391 164.578C98.55 169.744 100.642 173.962 101.793 179.655C102.63 183.767 103.885 187.457 106.815 190.514C116.858 200.952 137.782 199.054 138.828 182.185C138.828 182.185 138.828 182.185 138.828 182.08C138.096 182.818 137.363 183.45 136.526 183.978Z" fill="white" fill-opacity="0.1"/>
<path d="M141.862 177.335C139.665 188.933 125.541 192.307 116.44 186.719C111.418 183.661 107.756 178.495 105.769 173.013C104.199 168.69 103.153 165.211 100.015 161.626C98.6546 160.045 97.1899 158.358 96.9807 156.144C96.5622 151.189 101.898 147.815 106.187 147.498C111.836 147.077 116.23 150.872 117.8 156.038C120.834 158.358 126.901 157.304 130.354 158.569C132.865 159.412 135.166 160.888 137.049 162.681C140.92 166.371 142.803 171.958 141.862 177.335ZM136.631 165.211C132.969 160.888 128.157 159.834 122.821 159.412C120.52 159.201 118.637 159.201 116.963 157.936C116.544 157.936 116.126 157.725 116.021 157.198L115.917 157.093C115.603 156.776 115.603 156.355 115.707 156.038C114.661 153.086 112.569 150.661 109.221 149.818C103.049 148.236 96.4576 154.351 101.479 160.045C103.781 162.681 105.35 164.578 106.396 167.952C109.326 176.808 113.929 186.086 124.286 187.141C136.422 188.406 145.105 175.227 136.631 165.211Z" fill="white" fill-opacity="0.1"/>
<path d="M133.806 171.221C132.237 166.687 128.157 164.578 123.658 164.262C121.252 164.157 119.055 164.895 117.381 166.582C115.916 168.058 115.289 170.272 115.498 172.275C115.498 173.329 115.812 174.278 116.335 175.227C118.218 178.39 121.252 180.288 124.809 180.815C126.901 181.131 129.203 180.815 130.981 179.76C133.911 178.179 134.852 174.278 133.806 171.221Z" fill="white" fill-opacity="0.1"/>
<path d="M118.114 191.78C117.486 191.78 117.486 192.834 118.114 192.834C118.846 192.834 118.846 191.78 118.114 191.78Z" fill="white" fill-opacity="0.1"/>
<path d="M122.717 191.78H122.403C121.775 191.78 121.775 192.834 122.403 192.834H122.717C123.344 192.834 123.344 191.78 122.717 191.78Z" fill="white" fill-opacity="0.1"/>
<path d="M116.021 188.828C114.661 188.828 114.661 190.936 116.021 190.936C117.381 190.936 117.381 188.828 116.021 188.828Z" fill="white" fill-opacity="0.1"/>
<path d="M126.901 190.62C125.541 190.62 125.541 192.728 126.901 192.728C128.157 192.728 128.157 190.62 126.901 190.62Z" fill="white" fill-opacity="0.1"/>
<path d="M120.938 189.566C119.578 189.566 119.578 191.674 120.938 191.674C122.298 191.674 122.298 189.566 120.938 189.566Z" fill="white" fill-opacity="0.1"/>
<path d="M113.301 187.035C111.941 187.035 111.941 189.144 113.301 189.144C114.661 189.144 114.661 187.035 113.301 187.035Z" fill="white" fill-opacity="0.1"/>
<path d="M106.919 159.834C104.932 158.569 104.199 155.933 105.455 153.824C106.187 152.665 104.304 151.61 103.676 152.77C101.898 155.827 102.944 159.834 105.978 161.626C107.024 162.364 108.07 160.572 106.919 159.834Z" fill="white" fill-opacity="0.1"/>
<path d="M108.802 162.891C107.442 162.891 107.442 165 108.802 165C110.058 165 110.163 162.891 108.802 162.891Z" fill="white" fill-opacity="0.1"/>
<path d="M126.901 166.898C124.495 166.371 122.089 166.476 119.892 167.425C119.055 167.741 118.532 168.479 118.846 169.323C119.055 170.061 119.997 170.799 120.729 170.377C122.507 169.639 124.286 169.428 126.169 169.85C128.052 170.377 128.889 167.319 126.901 166.898Z" fill="white" fill-opacity="0.1"/>
<path d="M129.935 170.799C127.948 170.799 127.948 173.962 129.935 173.962C132.028 173.962 132.028 170.799 129.935 170.799Z" fill="white" fill-opacity="0.1"/>
<path d="M40.6961 130.946C39.5453 128.204 37.5576 125.78 35.0467 124.198C29.6066 120.93 23.3295 122.827 20.0864 115.974C19.4587 114.709 17.6802 115.869 18.3079 117.029C20.5048 121.562 23.748 123.249 28.4558 124.304C32.6405 125.252 36.0929 126.518 38.2899 130.524C40.173 133.898 40.3822 138.01 38.7084 141.489C34.5236 150.029 22.7018 151.294 16.0063 145.073C10.1477 139.591 8.89225 127.677 11.2985 120.403C11.7169 119.137 9.72919 118.61 9.31072 119.875C6.79989 127.572 8.05531 139.907 13.7047 146.128C18.7263 151.61 28.7697 152.559 34.9421 148.658C40.8007 144.968 43.5208 137.693 40.6961 130.946Z" fill="white" fill-opacity="0.1"/>
<path d="M26.7821 145.812C19.9819 143.703 14.9603 137.799 14.1233 130.629C14.0187 129.997 12.9725 129.997 13.0772 130.629C14.0187 138.22 19.2496 144.652 26.4683 146.866C27.2006 147.077 27.4098 146.022 26.7821 145.812Z" fill="white" fill-opacity="0.1"/>
<path d="M37.4533 144.335C32.0131 145.812 27.3053 142.754 23.1206 139.697C22.5975 139.275 22.0744 140.224 22.5975 140.645C27.0961 143.914 32.0131 147.077 37.7671 145.39C38.3948 145.179 38.081 144.125 37.4533 144.335Z" fill="white" fill-opacity="0.1"/>
<path d="M23.4342 132.949C21.1326 131.684 19.3541 129.786 18.4126 127.361C18.2033 126.728 17.1571 127.045 17.3664 127.677C18.4126 130.313 20.2957 132.527 22.9111 133.898C23.5388 134.214 24.0619 133.265 23.4342 132.949Z" fill="white" fill-opacity="0.1"/>
<path d="M27.0959 126.518C26.4682 126.307 26.1544 127.256 26.7821 127.572C32.3268 129.681 39.0224 132.633 39.4409 139.38C39.4409 140.013 40.487 140.013 40.487 139.38C40.0686 132 33.1638 128.837 27.0959 126.518Z" fill="white" fill-opacity="0.1"/>
<path d="M13.9141 117.029C13.391 115.764 13.1817 114.498 13.1817 113.128C13.1817 112.495 12.1355 112.495 12.1355 113.128C12.0309 114.709 12.3448 116.185 12.9725 117.556C13.2863 118.189 14.2279 117.661 13.9141 117.029Z" fill="white" fill-opacity="0.1"/>
<path d="M26.3636 112.39C25.2128 116.923 21.0281 118.716 17.2619 116.712C16.5296 119.243 16.4249 121.668 16.7388 124.304C16.8434 125.358 15.588 125.569 14.9603 125.042C12.8679 123.46 11.4033 121.668 10.0432 119.559C7.42779 121.773 4.08002 121.246 0.732246 120.403C-0.313933 120.086 -0.209315 118.716 0.732246 118.399C5.75391 116.712 3.13846 107.856 8.36935 106.802C6.48623 103.639 6.277 99.9489 7.95088 96.4697C8.47397 95.2045 10.3571 96.2588 9.72939 97.524C8.47397 100.16 8.68321 103.217 10.1479 105.748C11.9264 104.904 13.4956 104.799 15.3788 105.537C17.9942 106.591 21.6558 113.128 24.7944 111.335C25.6313 110.703 26.5729 111.441 26.3636 112.39ZM23.6436 113.655C18.8311 113.866 16.6342 105.01 11.2987 107.435C11.2987 107.54 11.2987 107.54 11.2987 107.645C11.4033 108.173 11.0894 108.805 10.3571 108.7C5.75391 108.278 6.48623 114.92 5.1262 117.345C4.81234 117.978 4.39387 118.399 4.08002 118.821C6.17238 119.137 8.16012 118.927 9.72939 117.029C10.1479 116.502 11.0894 116.712 11.4033 117.24C12.3448 118.927 13.391 120.403 14.6464 121.668C14.6464 119.348 14.9603 117.134 15.7972 114.815C16.0065 114.288 16.7388 113.76 17.3665 114.182C20.2958 115.764 22.4928 115.553 23.6436 113.655Z" fill="white" fill-opacity="0.1"/>
<path d="M7.53251 110.597C7.32328 112.284 7.11404 113.866 6.9048 115.553C6.80019 116.185 7.84637 116.185 7.95098 115.553C8.16022 113.866 8.36945 112.284 8.57869 110.597C8.68331 109.965 7.63713 109.965 7.53251 110.597Z" fill="white" fill-opacity="0.1"/>
<path d="M17.2619 111.335C16.2157 109.965 14.8556 109.016 13.2864 108.383C12.6587 108.173 12.3448 109.121 12.9725 109.438C14.4372 110.07 15.588 110.914 16.5295 112.179C16.948 112.601 17.6803 111.863 17.2619 111.335Z" fill="white" fill-opacity="0.1"/>
<path d="M19.1449 176.281C19.2495 176.176 19.2495 176.176 19.3541 176.07C20.9234 173.224 21.3418 170.272 20.7141 167.109C20.4003 165.738 18.4125 166.371 18.7264 167.636C19.0402 169.323 19.0402 171.01 18.6218 172.591C18.3079 171.748 18.0987 170.904 17.7848 170.061C17.3664 168.796 15.3786 169.323 15.7971 170.588C16.1109 171.537 16.3202 172.486 16.634 173.329C15.4832 172.591 14.4371 171.853 13.3909 170.904C12.5539 170.061 10.9847 171.22 11.717 172.169C11.8216 172.275 11.8216 172.275 11.9262 172.38C12.8678 173.645 14.0186 174.805 15.1694 175.754C13.7047 175.649 12.3447 175.332 10.88 174.911C9.52001 174.594 9.10154 176.492 10.357 176.914C12.3447 177.652 14.3324 177.968 16.5294 177.968C16.634 177.968 16.634 177.968 16.7386 177.968C17.3664 177.968 17.9941 177.968 18.6218 177.968C19.4587 178.179 19.8772 176.914 19.1449 176.281Z" fill="white" fill-opacity="0.1"/>
<path d="M29.7115 190.409C26.0498 194.626 16.425 191.042 13.3911 187.351C9.72946 182.712 13.0772 176.597 18.5174 176.281C18.8312 171.537 24.6898 169.428 28.5607 172.591C33.0592 176.387 33.3731 186.086 29.7115 190.409ZM29.8161 178.917C29.5022 177.441 28.8745 175.965 27.8284 174.911C25.736 172.696 19.7728 172.275 20.6097 177.335C20.819 178.39 19.5635 178.917 18.9358 178.495C13.4957 178.495 12.5541 184.927 16.8435 187.668C18.8312 188.827 22.8067 190.409 25.1083 190.198C29.9207 189.776 30.4438 182.291 29.8161 178.917Z" fill="white" fill-opacity="0.1"/>
<path d="M22.7017 186.719C21.3416 186.719 21.3416 188.827 22.7017 188.827C23.9571 188.827 23.9571 186.719 22.7017 186.719Z" fill="white" fill-opacity="0.1"/>
<path d="M26.1543 186.403C24.7943 186.403 24.7943 188.511 26.1543 188.511C27.5143 188.511 27.5143 186.403 26.1543 186.403Z" fill="white" fill-opacity="0.1"/>
<path d="M18.5171 183.24C17.1571 183.24 17.1571 185.348 18.5171 185.348C19.8771 185.348 19.8771 183.24 18.5171 183.24Z" fill="white" fill-opacity="0.1"/>
<path d="M25.8403 174.489C24.4803 174.489 24.4803 176.597 25.8403 176.597C27.0958 176.597 27.0958 174.489 25.8403 174.489Z" fill="white" fill-opacity="0.1"/>
<path d="M27.2002 178.706C25.8402 178.706 25.8402 180.815 27.2002 180.815C28.5602 180.815 28.5602 178.706 27.2002 178.706Z" fill="white" fill-opacity="0.1"/>
<path d="M30.9668 21.9297C31.0714 21.9297 31.1761 22.0352 31.1761 22.0352C34.3146 22.5623 37.2439 21.9297 39.964 20.2428C41.1148 19.5048 39.8593 17.8179 38.7085 18.5559C37.2439 19.5048 35.6746 20.032 34.1054 20.1374C34.7331 19.6102 35.4654 19.0831 36.0931 18.5559C37.1393 17.7125 35.9885 16.0256 34.8377 16.869C34.1054 17.3962 33.2684 18.0288 32.5361 18.6614C32.7453 17.2908 33.1638 16.0256 33.6869 14.7604C34.1054 13.7061 32.5361 12.6518 31.9084 13.6007C31.9084 13.7061 31.8038 13.7061 31.8038 13.8115C31.8038 13.8115 31.8038 13.8115 31.8038 13.9169C30.9668 15.2876 30.3391 16.6582 29.7114 18.1342C29.3975 16.7636 29.0837 15.2876 28.9791 13.8115C28.8745 12.4409 26.8867 12.6518 26.8867 14.0224C26.8867 16.131 27.2006 18.2396 28.0375 20.2428C28.0375 20.3483 28.1421 20.3483 28.1421 20.4537C28.3514 21.0863 28.5606 21.6134 28.7698 22.246C29.3975 22.8786 30.7576 22.8786 30.9668 21.9297Z" fill="white" fill-opacity="0.1"/>
<path d="M21.5514 36.7955C16.3205 34.7924 16.3205 24.4601 18.7267 20.3483C21.7606 15.2876 28.6654 16.3419 30.7577 21.4026C35.3609 20.032 39.2318 24.8818 37.6625 29.6262C35.7794 35.1086 26.8869 38.7987 21.5514 36.7955ZM32.327 32.8946C33.5824 32.0511 34.7332 30.9968 35.3609 29.6262C36.721 26.885 35.0471 21.0863 30.5485 23.6166C29.6069 24.1438 28.6654 23.1949 28.8746 22.4569C26.9915 17.3962 20.6098 18.6614 19.6682 23.7221C19.2498 25.9361 19.2498 30.2588 20.1913 32.4729C22.1791 36.7955 29.2931 34.6869 32.327 32.8946Z" fill="white" fill-opacity="0.1"/>
<path d="M22.493 28.8882C22.0745 27.623 20.0868 28.361 20.5053 29.6262C21.0284 30.8914 23.0161 30.1534 22.493 28.8882Z" fill="white" fill-opacity="0.1"/>
<path d="M24.0624 32.0511C23.6439 30.7859 21.6561 31.524 22.0746 32.7891C22.5977 34.0543 24.5854 33.3163 24.0624 32.0511Z" fill="white" fill-opacity="0.1"/>
<path d="M24.3758 23.7221C23.9574 22.4569 21.9696 23.1949 22.3881 24.4601C22.9112 25.7253 24.7943 24.9872 24.3758 23.7221Z" fill="white" fill-opacity="0.1"/>
<path d="M35.0472 27.623C34.6287 26.3578 32.641 27.0959 33.0595 28.361C33.5826 29.5208 35.4657 28.8882 35.0472 27.623Z" fill="white" fill-opacity="0.1"/>
<path d="M31.5946 30.3642C31.1761 29.099 29.1884 29.8371 29.6068 31.1022C30.1299 32.3674 32.1177 31.6294 31.5946 30.3642Z" fill="white" fill-opacity="0.1"/>
<path d="M218.756 188.3C218.233 192.412 216.036 196.735 211.747 197.789C209.027 198.422 206.202 197.578 204.528 195.47C199.82 199.476 193.229 194.204 192.706 188.511C192.392 184.821 193.439 180.288 196.996 178.601C199.82 177.23 202.959 178.073 205.679 179.339C207.98 177.125 211.328 176.387 214.362 177.757C218.442 179.655 219.279 184.294 218.756 188.3ZM213.944 180.709C212.165 179.128 209.445 179.971 207.771 181.342C207.562 182.185 206.62 182.923 205.679 182.396C204.214 181.658 202.017 180.498 200.134 180.709C196.472 181.131 195.531 184.399 195.531 187.141C195.426 191.358 200.239 196.84 203.796 192.201C204.319 191.569 205.679 191.674 205.993 192.518C208.817 198.843 214.99 193.045 215.827 188.827C216.455 186.192 216.141 182.712 213.944 180.709Z" fill="white" fill-opacity="0.1"/>
<path d="M32.9547 80.4441C32.0131 82.131 30.13 83.0799 28.3515 82.6582C28.0377 84.1342 26.9915 85.2939 25.3176 85.8211C22.8068 86.6646 20.4005 85.0831 18.9359 83.0799C17.3666 81.0767 16.0066 78.1246 17.1574 75.5943C17.9943 73.6965 19.8775 72.7476 21.7606 73.2748C21.8652 71.5879 22.8068 70.0064 24.4806 69.2684C27.2007 68.0032 30.3393 69.4792 31.9085 71.7987C33.4778 74.2237 34.3147 77.9138 32.9547 80.4441ZM31.49 77.1757C31.49 75.8051 31.0716 74.3291 30.2346 73.1693C29.2931 71.7987 27.6192 70.5336 25.7361 71.0607C24.1668 71.6933 23.4345 73.3802 24.0622 74.8562C24.4806 76.016 22.9114 76.5432 22.2837 75.6997C22.0744 75.6997 21.8652 75.6997 21.656 75.5943C19.7728 74.54 18.9359 78.1246 19.2498 79.3898C19.459 80.0224 19.8775 80.8658 20.2959 81.393C20.9236 82.3419 21.656 83.1853 22.7021 83.607C23.4345 84.1342 24.376 84.1342 25.3176 83.7125C25.7361 82.9745 26.0499 82.2364 26.4684 81.4984C26.2592 80.655 27.2007 79.7061 28.0377 80.3387C30.13 81.9201 31.49 79.0735 31.49 77.1757Z" fill="white" fill-opacity="0.1"/>
<path d="M209.654 171.115C208.922 166.371 206.307 162.364 202.54 159.728C201.808 159.201 201.076 160.466 201.808 160.994C204.737 163.102 206.83 165.949 207.771 169.428C208.608 172.486 209.236 178.706 205.365 180.077C204.528 180.393 204.842 181.764 205.783 181.447C209.759 179.866 210.177 174.805 209.654 171.115Z" fill="white" fill-opacity="0.1"/>
<path d="M25.213 57.6709C25.7361 57.2492 25.213 56.4058 24.6899 56.722C21.8652 58.7252 19.5636 61.361 19.1452 64.9457C18.7267 68.4249 20.1913 71.7987 22.7022 74.0128C23.2253 74.4345 23.9576 73.6965 23.4345 73.2748C18.099 68.5304 19.8775 61.361 25.213 57.6709Z" fill="white" fill-opacity="0.1"/>
<path d="M71.4538 40.1693C71.1399 44.0703 68.8384 47.2332 65.386 48.9201C64.8629 49.2364 64.3398 48.6038 64.7583 48.0767C68.2106 43.5431 65.2813 37.7444 64.9675 32.262C63.6075 35.5303 61.5151 38.4824 58.5858 40.9073C57.5396 41.7508 56.075 40.2747 57.1211 39.4313C61.4105 35.9521 63.9213 31.2076 64.3398 25.7252C64.4444 24.3546 66.5368 24.3546 66.4321 25.7252C66.4321 25.9361 66.3275 26.1469 66.3275 26.4632C66.4321 26.4632 66.4321 26.5687 66.5368 26.6741C69.0476 30.5751 71.8723 35.1086 71.4538 40.1693ZM70.303 37.9553C69.8845 34.2652 68.0014 30.9968 66.1183 27.9393C66.1183 28.1501 66.0137 28.2556 66.0137 28.4664C66.2229 28.5719 66.3275 28.7827 66.2229 28.9936C64.549 34.8977 68.943 41.3291 66.5368 46.9169C69.3614 44.9137 70.7215 41.6453 70.303 37.9553Z" fill="white" fill-opacity="0.1"/>
<path d="M60.4691 45.23C60.3645 49.3419 57.1213 53.4537 53.0412 54.2971C49.4842 55.0352 45.4041 52.6102 45.0903 48.8147C44.7764 44.3866 48.8565 39.853 53.0412 39.2205H53.1458C57.1213 37.7444 60.5737 41.3291 60.4691 45.23ZM53.4597 40.9074C53.3551 41.0128 53.1458 41.0128 53.0412 40.9074C50.3212 41.5399 48.0196 43.8594 47.078 46.4952C46.0318 49.869 48.5427 52.8211 51.995 52.6102C55.029 52.3994 57.5398 49.7636 58.3767 46.9169C59.4229 43.754 57.4352 39.4313 53.4597 40.9074Z" fill="white" fill-opacity="0.1"/>
<path d="M50.1118 48.0767C48.7518 48.0767 48.7518 50.1853 50.1118 50.1853C51.4719 50.1853 51.4719 48.0767 50.1118 48.0767Z" fill="white" fill-opacity="0.1"/>
<path d="M56.5982 156.987C56.5982 156.882 56.7028 156.882 56.8074 156.776C56.8074 156.565 56.7028 156.355 56.7028 156.038C56.5982 154.668 58.6906 154.668 58.7952 156.038C59.2136 161.521 61.7245 166.371 66.0138 169.744C67.06 170.588 65.5953 172.064 64.5492 171.22C61.6199 168.901 59.5275 165.949 58.1675 162.575C57.8536 167.952 54.9243 173.856 58.3767 178.39C58.6906 178.811 58.2721 179.444 57.749 179.233C54.2966 177.546 51.995 174.383 51.6812 170.482C51.2627 165.527 54.0874 160.994 56.5982 156.987ZM56.5982 177.335C54.192 171.748 58.5859 165.211 56.9121 159.412C56.8074 159.096 56.912 158.99 57.1213 158.885C57.1213 158.674 57.0167 158.569 57.0167 158.358C55.0289 161.415 53.2504 164.684 52.832 168.374C52.4135 172.064 53.7735 175.332 56.5982 177.335Z" fill="white" fill-opacity="0.1"/>
<path d="M69.8846 169.534H69.9892C74.1739 170.166 78.254 174.805 77.9402 179.128C77.6263 183.029 73.5462 185.348 69.9892 184.61C65.9091 183.767 62.666 179.655 62.5613 175.543C62.4567 171.748 66.0137 168.163 69.8846 169.534ZM64.6537 177.441C65.4906 180.288 68.0015 182.923 71.0354 183.134C74.4878 183.345 76.9986 180.393 75.9524 177.019C75.1155 174.278 72.8139 171.958 69.9892 171.431C69.8846 171.431 69.78 171.431 69.5707 171.431C65.6999 169.85 63.7121 174.173 64.6537 177.441Z" fill="white" fill-opacity="0.1"/>
<path d="M73.0234 178.495C74.3835 178.495 74.3835 180.604 73.0234 180.604C71.6634 180.604 71.6634 178.495 73.0234 178.495Z" fill="white" fill-opacity="0.1"/>
<path d="M242.923 121.984C240.726 124.304 237.169 127.361 233.716 126.623C232.67 126.412 232.147 125.78 231.206 125.252C229.636 124.304 227.753 124.62 226.079 123.987C224.615 123.46 223.464 122.722 222.732 121.351C220.325 117.556 221.685 111.546 222.418 107.435C223.15 103.428 223.778 97.8403 226.916 94.9936C229.95 92.147 233.612 93.8339 236.541 96.0479C236.75 96.1534 236.75 96.3642 236.75 96.4697C239.261 95.8371 242.086 96.8914 243.551 99.4217C245.643 98.262 248.154 97.8403 250.037 99.738C252.548 102.268 250.978 106.38 249.932 109.121C248.363 113.76 246.271 118.399 242.923 121.984ZM249.2 107.54C249.618 106.38 250.037 105.326 250.141 104.061C250.56 101.214 248.781 99.9489 244.701 100.371C243.76 100.898 242.923 101.53 242.086 102.268C241.354 102.901 240.517 101.741 241.249 101.109C241.667 100.792 242.086 100.371 242.609 100.054C240.621 96.4697 235.495 96.7859 233.926 100.792C233.612 101.636 232.252 101.109 232.566 100.265C233.193 98.6837 234.24 97.524 235.495 96.8914C232.984 95.0991 229.846 93.7284 227.439 96.6805C226.602 97.6294 226.184 98.8946 225.766 100.16C224.615 103.428 223.987 107.013 223.569 110.387C223.15 113.655 222.208 118.083 224.405 120.824C226.184 123.038 228.695 121.984 230.996 123.144C231.624 123.566 232.147 123.987 232.67 124.514C234.135 124.62 235.6 124.725 236.96 124.831C238.634 124.409 240.726 122.406 241.877 121.246C243.551 119.454 244.911 117.24 246.061 115.026C247.212 112.495 248.258 110.07 249.2 107.54Z" fill="white" fill-opacity="0.1"/>
<path d="M236.646 86.77C235.704 86.6645 235.6 88.1406 236.437 88.246C240.308 88.7732 242.086 93.2013 239.575 96.2588C238.947 96.9968 240.098 97.8402 240.726 97.1022C243.969 93.2013 241.668 87.4026 236.646 86.77Z" fill="white" fill-opacity="0.1"/>
<path d="M231.415 96.3642C227.858 97.5239 226.602 101.109 225.661 104.377C225.452 105.22 226.707 105.853 227.021 104.904C227.858 101.952 228.799 98.6837 231.938 97.6294C232.879 97.4185 232.356 96.1533 231.415 96.3642Z" fill="white" fill-opacity="0.1"/>
<path d="M225.033 106.696L224.928 106.907C224.615 107.751 225.87 108.278 226.289 107.435L226.393 107.224C226.707 106.38 225.452 105.853 225.033 106.696Z" fill="white" fill-opacity="0.1"/>
<path d="M241.249 118.188C241.563 117.345 240.203 116.712 239.889 117.661C239.156 119.875 237.273 121.457 234.972 121.668C234.03 121.773 234.239 123.144 235.181 123.144C237.901 122.933 240.307 120.93 241.249 118.188Z" fill="white" fill-opacity="0.1"/>
<path d="M250.141 165.949C248.781 164.578 247.526 163.102 246.375 161.626C246.27 161.415 246.166 161.31 246.061 161.204C245.329 160.256 244.492 159.201 243.864 158.147C244.597 156.038 245.957 154.351 247.944 153.297C248.781 152.875 248.049 151.399 247.212 151.927C245.957 152.559 244.91 153.508 243.969 154.562C244.283 152.454 245.12 150.556 246.48 148.869C247.107 148.131 245.747 147.288 245.12 148.026C243.341 150.24 242.4 152.981 242.19 155.828C241.353 154.562 240.621 153.192 239.889 151.821C239.889 151.61 239.784 151.294 239.575 151.189C239.366 150.767 239.156 150.451 238.947 150.029C239.156 147.288 239.68 144.546 240.412 141.805C240.726 140.856 239.156 140.435 238.947 141.383C238.424 143.387 238.006 145.39 237.692 147.393C236.959 145.706 236.436 144.125 235.913 142.332C236.018 142.016 235.913 141.489 235.599 141.383C234.972 139.169 234.449 136.955 234.03 134.741C233.821 133.792 232.356 134.109 232.566 135.058C232.984 137.166 233.402 139.169 234.03 141.173C231.729 140.856 229.532 140.013 227.648 138.431C226.916 137.799 226.079 139.169 226.812 139.802C229.009 141.594 231.624 142.649 234.449 142.754C235.286 145.284 236.227 147.815 237.378 150.24C237.378 150.451 237.483 150.661 237.587 150.767C236.123 150.451 234.762 149.818 233.507 148.869C233.402 148.764 233.193 148.764 233.089 148.764C231.833 147.709 230.578 146.655 229.532 145.39C228.904 144.652 227.753 145.706 228.381 146.444C229.427 147.604 230.473 148.658 231.624 149.607C230.682 150.134 229.741 150.24 228.59 150.134C227.648 150.029 227.544 151.61 228.59 151.716C230.264 151.927 231.833 151.505 233.089 150.556C234.762 151.716 236.541 152.348 238.529 152.454C239.993 155.406 241.772 158.147 243.76 160.783C243.237 160.783 242.713 160.677 242.295 160.677C242.086 160.572 241.877 160.572 241.772 160.677C240.412 160.572 238.947 160.572 237.587 160.572C236.646 160.572 236.541 162.153 237.587 162.153C238.529 162.153 239.575 162.153 240.516 162.153C239.68 163.102 238.947 164.051 238.11 165C237.483 165.738 238.529 166.898 239.156 166.16L242.4 162.259C243.341 162.364 244.283 162.364 245.224 162.47C246.48 163.946 247.735 165.527 249.095 166.898C249.723 167.741 250.874 166.687 250.141 165.949Z" fill="white" fill-opacity="0.1"/>
<path d="M207.039 36.901C207.353 34.7924 206.306 30.9968 204.005 30.3642C204.528 29.9425 204.005 28.9936 203.377 29.4154C203.273 29.4154 203.168 29.5208 203.168 29.5208C202.959 28.6773 202.959 27.7285 202.436 26.885C201.808 25.8307 200.866 25.1981 199.716 24.671C199.192 24.4601 198.774 25.1981 199.088 25.6198C200.448 26.9904 201.18 28.4665 201.599 30.2588C198.669 31.3131 194.798 32.0511 195.74 35.8467C195.845 36.4793 196.786 36.3738 196.891 35.7412C196.995 33.4218 200.448 32.6837 202.226 32.0511C202.436 31.9457 202.54 31.9457 202.749 31.8403C203.168 32.0512 203.691 32.3674 203.9 32.4729C205.469 33.5272 206.202 35.0032 205.993 36.901C205.993 37.5336 206.934 37.7444 207.143 37.1119C206.934 37.1119 206.934 37.0064 207.039 36.901C207.039 37.0064 207.039 37.0064 207.039 36.901C207.039 36.901 207.039 37.0064 207.039 36.901Z" fill="white" fill-opacity="0.1"/>
<path d="M222.313 14.8661C222.104 21.7191 216.768 32.5786 208.922 32.8949C205.993 33.0003 203.377 31.3134 202.645 28.3613C201.912 25.4092 203.691 22.8789 205.993 21.192C210.177 18.1345 216.664 16.3421 217.291 10.2271C217.605 7.27505 213.316 3.16323 216.454 0.738311C216.559 0.63288 216.664 0.63288 216.768 0.63288C217.396 -0.632296 219.07 0.000291955 219.384 1.47633C219.488 2.00349 219.384 2.42521 219.279 2.84694C219.174 4.00668 219.488 4.95556 220.116 5.90444C220.43 6.53703 220.744 7.16962 221.058 7.80221C221.999 10.1217 222.418 12.5466 222.313 14.8661ZM220.011 8.22393C219.593 7.06419 218.651 5.90445 218.337 4.7447C218.128 3.90125 218.128 4.00668 218.233 3.26866C218.233 2.84694 218.337 2.42521 218.442 2.00349C218.233 1.79262 218.024 1.68719 217.814 1.47633C217.71 1.89806 217.396 1.89806 217.082 1.79262C215.513 3.26866 217.5 5.48272 218.024 6.85333C218.442 8.01307 218.651 9.06738 218.442 10.3326C218.233 12.3358 217.291 14.2335 215.931 15.7096C214.153 17.8182 211.747 19.1888 209.34 20.454C206.306 22.1409 202.436 24.5658 203.9 28.6776C205.888 33.9492 212.06 31.3134 214.78 28.5722C217.291 26.0418 219.279 22.8789 220.325 19.3997C221.476 15.815 221.476 11.8086 220.011 8.22393Z" fill="white" fill-opacity="0.1"/>
<path d="M213.002 26.9904C211.433 28.7828 209.131 29.3099 206.934 28.3611C206.306 28.0448 205.888 29.2045 206.62 29.4154C209.131 30.5751 212.06 29.8371 213.839 27.8339C214.257 27.3067 213.525 26.4633 213.002 26.9904Z" fill="white" fill-opacity="0.1"/>
<path d="M216.036 24.4601C215.304 24.6709 215.617 25.7253 216.245 25.6198C216.978 25.409 216.664 24.2492 216.036 24.4601Z" fill="white" fill-opacity="0.1"/>
<path d="M242.609 45.3354C241.458 45.5463 241.981 47.3386 243.132 47.1278C252.024 45.1246 256.732 55.3514 252.757 62.4153C249.514 68.214 242.609 70.3227 236.332 69.6901C229.532 68.8466 222.836 64.3131 222.522 56.9329C222.208 49.4473 229.113 45.5463 235.599 45.3354C236.75 45.3354 236.75 43.4377 235.599 43.5431C228.067 43.754 220.325 48.4984 220.639 56.9329C221.058 66.1054 229.845 71.4824 238.215 71.5878C246.375 71.6933 254.954 66.738 256 57.8818C256.837 50.1853 250.246 43.6485 242.609 45.3354Z" fill="white" fill-opacity="0.1"/>
<path d="M231.101 62.5207C228.067 59.9904 226.916 55.7731 228.59 52.083C229.113 51.0287 227.544 50.0798 227.021 51.1342C225.033 55.4568 226.079 60.623 229.845 63.7859C230.682 64.5239 232.042 63.2588 231.101 62.5207Z" fill="white" fill-opacity="0.1"/>
<path d="M233.193 64.6294C232.042 64.6294 232.042 66.4217 233.193 66.4217C234.344 66.4217 234.344 64.6294 233.193 64.6294Z" fill="white" fill-opacity="0.1"/>
</g>
<defs>
<clipPath id="clip0_189_129">
<rect width="256" height="198" fill="white"/>
</clipPath>
</defs>
</svg>
